<svg width="518" height="481" viewBox="0 0 518 481" fill="none" xmlns="http://www.w3.org/2000/svg">
<rect width="518" height="481" rx="79.119" fill="#FF4400"/>
<path d="M0 274.161H518V401.881C518 445.577 482.577 481 438.881 481H79.119C35.4228 481 0 445.577 0 401.881V274.161Z" fill="#736A68"/>
<path d="M249.36 159.896C249.123 158.235 248.174 156.811 247.699 155.387C247.224 153.25 247.224 151.114 247.462 148.978C247.462 141.382 248.648 134.024 247.936 126.429C247.462 122.394 247.224 118.359 246.987 114.561C246.749 110.763 248.886 107.915 249.123 104.117C249.36 100.082 247.224 96.5219 247.462 92.4869C247.936 88.6892 249.36 85.6035 248.886 81.8058C247.699 72.3115 237.018 66.6149 227.761 70.8874C222.064 73.7357 220.64 77.7707 220.403 83.2299C220.403 86.7903 218.741 89.8759 218.267 93.1989C217.792 97.234 219.928 100.794 220.165 104.592C220.165 108.627 220.165 113.137 219.691 117.172C218.979 120.97 217.317 124.055 218.267 128.09C218.741 129.752 219.691 131.176 219.928 132.838C220.403 134.974 220.165 137.11 220.165 139.484C220.165 146.604 219.928 153.962 218.267 161.083C217.555 163.457 218.267 171.052 213.757 168.679C211.858 167.729 210.671 165.356 209.247 164.169C208.06 163.219 206.873 162.507 205.924 161.558C200.465 155.861 196.904 148.503 192.157 142.332C187.648 136.161 183.138 129.04 177.916 123.343C175.068 120.495 172.457 117.647 169.608 114.798C166.523 111.475 162.013 108.627 157.266 110.763C152.756 112.662 150.62 117.172 147.534 120.495C144.686 123.106 142.312 126.192 139.464 128.803C136.616 131.651 134.242 134.262 132.581 137.822C130.919 141.145 129.02 143.993 126.172 146.367C122.849 149.215 120.713 152.064 118.814 155.861C117.39 159.184 115.016 161.795 113.117 164.881C110.981 167.966 108.37 171.527 104.098 169.153C100.775 167.254 101.487 163.694 102.199 160.608C103.148 156.573 102.911 153.488 101.724 149.453C100.537 145.892 100.775 142.095 100.775 138.297C100.775 135.923 100.537 133.312 101.487 130.939C101.962 129.515 102.436 128.328 102.674 127.141C103.623 122.869 101.25 119.783 100.775 115.748C100.3 111.713 101.25 107.203 101.25 102.931C101.25 99.1329 101.012 94.8604 101.724 90.8254C102.436 87.0277 103.623 83.4673 101.724 79.4322C100.063 75.6345 96.7398 72.3115 92.4673 71.1247C82.973 68.2764 71.3425 75.8719 72.0546 85.6035C72.292 87.5024 73.004 89.1639 73.4788 91.0627C73.9535 93.1989 73.9535 95.3352 73.7161 97.4714C73.7161 101.032 73.9535 104.592 73.004 108.152C71.1052 115.273 72.7667 123.106 73.004 130.701C73.004 134.736 74.1908 138.772 74.1908 142.807C74.1908 146.842 73.9535 151.114 73.4788 154.912C73.2414 158.947 72.5293 162.507 72.7667 166.305C73.004 170.103 73.004 173.9 72.7667 177.698C72.5293 181.496 73.004 185.294 73.4788 189.091C73.7161 192.652 73.004 196.212 72.7667 199.772C72.7667 204.282 72.0546 208.792 72.0546 213.302C71.8173 216.625 70.6305 220.422 72.5293 223.271C73.9535 225.407 75.615 227.068 76.8018 229.205C77.7512 230.866 78.7006 232.528 80.5995 233.714C84.3972 235.851 90.3311 235.613 94.1288 233.477C97.9265 231.341 100.3 227.543 102.911 224.457C105.759 221.372 107.658 218.049 109.794 214.726C112.168 210.928 115.966 208.792 118.577 205.469C121.188 202.383 124.273 198.586 125.935 195.025C127.834 191.227 128.308 187.904 132.343 185.056C135.666 182.445 138.04 179.597 140.651 176.511C143.262 173.426 145.161 170.103 147.297 166.78C148.721 164.881 149.908 163.219 150.857 161.083C151.569 159.659 151.807 158.235 152.756 156.811C154.892 153.25 159.639 152.064 163.674 153.488C167.71 154.912 168.659 157.997 170.083 161.083C171.745 165.83 175.542 167.492 178.628 171.052C181.239 173.9 183.612 176.986 185.749 180.072C188.36 183.632 189.784 187.43 192.869 190.753C195.48 193.838 198.329 196.212 200.227 200.01C202.126 203.57 204.5 206.418 207.111 209.504C209.959 212.59 211.621 215.913 213.519 219.236C215.656 222.796 218.979 226.119 221.59 229.205C224.675 232.528 228.948 233.714 233.695 233.714C238.205 233.714 243.189 232.053 245.8 228.73C248.886 224.932 249.123 220.897 249.123 216.387C249.123 212.59 249.123 208.555 249.36 204.519C249.36 200.722 248.648 198.111 247.699 194.55C246.749 190.515 247.462 185.768 247.462 181.496C247.462 177.935 246.749 174.138 247.224 170.577C247.699 166.78 250.31 163.931 249.36 159.896Z" fill="white"/>
<path d="M384.919 69.6018C383.369 69.8233 382.039 70.7094 380.71 71.1525C378.716 71.5956 376.723 71.5956 374.729 71.374C367.64 71.374 360.772 70.2664 353.683 70.931C349.917 71.374 346.151 71.5956 342.606 71.8171C339.062 72.0386 336.404 70.0448 332.859 69.8233C329.093 69.6018 325.77 71.5956 322.004 71.374C318.459 70.931 315.579 69.6018 312.035 70.0448C303.174 71.1525 297.857 81.1215 301.844 89.7613C304.503 95.0781 308.269 96.4073 313.364 96.6288C316.687 96.6288 319.567 98.1796 322.668 98.6226C326.435 99.0657 329.758 97.0719 333.302 96.8504C337.068 96.8504 341.277 96.8504 345.043 97.2934C348.588 97.958 351.468 99.5088 355.234 98.6226C356.785 98.1796 358.114 97.2934 359.665 97.0719C361.658 96.6288 363.652 96.8504 365.867 96.8504C372.513 96.8504 379.381 97.0719 386.027 98.6226C388.242 99.2872 395.331 98.6226 393.116 102.832C392.23 104.604 390.015 105.712 388.907 107.041C388.021 108.149 387.356 109.256 386.47 110.142C381.153 115.238 374.286 118.561 368.526 122.991C362.766 127.2 356.12 131.41 350.803 136.283C348.145 138.942 345.486 141.379 342.828 144.037C339.727 146.917 337.068 151.126 339.062 155.557C340.834 159.766 345.043 161.76 348.145 164.64C350.582 167.298 353.462 169.513 355.898 172.172C358.557 174.83 360.994 177.045 364.317 178.596C367.418 180.147 370.077 181.919 372.292 184.578C374.95 187.679 377.609 189.673 381.153 191.445C384.255 192.774 386.692 194.99 389.572 196.762C392.451 198.756 395.774 201.193 393.559 205.18C391.787 208.282 388.464 207.617 385.584 206.952C381.818 206.066 378.938 206.288 375.172 207.396C371.849 208.503 368.304 208.282 364.76 208.282C362.544 208.282 360.108 208.503 357.892 207.617C356.563 207.174 355.455 206.731 354.348 206.509C350.36 205.623 347.48 207.839 343.714 208.282C339.948 208.725 335.739 207.839 331.751 207.839C328.207 207.839 324.219 208.06 320.453 207.396C316.909 206.731 313.586 205.623 309.82 207.396C306.275 208.946 303.174 212.048 302.066 216.035C299.407 224.897 306.497 235.752 315.579 235.087C317.352 234.866 318.902 234.201 320.675 233.758C322.668 233.315 324.662 233.315 326.656 233.536C329.979 233.536 333.302 233.315 336.625 234.201C343.271 235.973 350.582 234.423 357.671 234.201C361.437 234.201 365.203 233.093 368.969 233.093C372.735 233.093 376.723 233.315 380.267 233.758C384.033 233.98 387.356 234.644 390.901 234.423C394.445 234.201 397.99 234.201 401.534 234.423C405.079 234.644 408.623 234.201 412.168 233.758C415.491 233.536 418.814 234.201 422.137 234.423C426.346 234.423 430.555 235.087 434.764 235.087C437.866 235.309 441.41 236.416 444.069 234.644C446.063 233.315 447.613 231.764 449.607 230.657C451.158 229.77 452.709 228.884 453.816 227.112C455.81 223.567 455.588 218.029 453.595 214.485C451.601 210.94 448.056 208.725 445.176 206.288C442.296 203.629 439.195 201.857 436.094 199.863C432.549 197.648 430.555 194.104 427.454 191.667C424.574 189.23 421.029 186.35 417.706 184.799C414.162 183.027 411.06 182.584 408.402 178.818C405.965 175.716 403.307 173.501 400.427 171.064C397.547 168.627 394.445 166.855 391.344 164.861C389.572 163.532 388.021 162.424 386.027 161.538C384.698 160.874 383.369 160.652 382.039 159.766C378.716 157.772 377.609 153.341 378.938 149.575C380.267 145.809 383.147 144.923 386.027 143.594C390.458 142.043 392.008 138.499 395.331 135.619C397.99 133.182 400.87 130.967 403.75 128.973C407.073 126.536 410.617 125.207 413.719 122.327C416.599 119.89 418.814 117.231 422.358 115.459C425.681 113.687 428.34 111.472 431.22 109.035C434.1 106.376 437.201 104.826 440.303 103.053C443.626 101.06 446.727 97.958 449.607 95.5212C452.709 92.6412 453.816 88.6536 453.816 84.223C453.816 80.0138 452.265 75.3616 449.164 72.9248C445.619 70.0448 441.853 69.8233 437.644 69.8233C434.1 69.8233 430.334 69.8233 426.568 69.6018C423.023 69.6018 420.586 70.2664 417.263 71.1525C413.497 72.0386 409.066 71.374 405.079 71.374C401.756 71.374 398.211 72.0386 394.888 71.5956C391.344 71.1525 388.685 68.7156 384.919 69.6018Z" fill="white"/>
<path d="M183.055 342.026C181.473 337.279 178.466 333.323 176.093 329.05C173.719 324.461 168.814 322.563 164.225 320.822C162.01 320.031 160.111 318.607 157.737 318.132C154.889 317.499 152.041 317.974 149.35 317.341C147.293 317.024 145.711 316.391 143.812 316.55C141.913 316.55 140.014 317.182 138.116 317.182C134.318 317.341 130.678 317.815 126.722 317.974C123.083 318.132 118.178 318.607 114.538 317.499C112.481 316.866 110.899 316.391 108.842 316.708C106.784 316.866 105.202 317.657 103.145 317.657C101.246 317.657 99.6637 317.182 97.9231 317.182C95.866 317.024 93.9671 317.341 91.91 317.499C87.6376 317.815 83.3652 317.499 79.0928 317.974C74.0291 318.607 72.9215 324.62 73.7127 328.892C74.1874 330.949 74.5038 332.69 74.1874 334.747C73.8709 336.962 73.5544 338.861 73.5544 341.076C73.5544 342.975 73.3962 344.874 73.3962 346.773C73.5544 348.988 74.1874 351.045 74.0291 353.261C74.0291 355.16 73.3962 356.9 73.2379 358.957C73.2379 360.856 73.2379 362.913 73.2379 364.97C73.0797 368.926 73.3962 372.882 73.8709 376.838C74.0291 378.895 73.5544 380.636 73.3962 382.693C72.9215 384.908 73.2379 386.965 73.5544 389.181C73.8709 393.137 73.7127 397.251 73.7127 401.207C73.7127 405.321 73.2379 409.594 73.7127 413.708C74.0291 415.607 73.8709 417.822 74.5038 419.721C75.295 421.936 77.0357 423.835 78.618 425.417C82.4158 429.215 86.8464 426.525 89.8529 423.044C91.2771 421.145 91.5936 419.246 91.7518 416.872C91.91 414.815 92.7012 412.917 92.7012 410.859C92.7012 407.062 92.2265 403.106 91.5936 399.308C91.2771 397.409 91.4353 395.669 92.0683 393.928C92.8595 392.029 92.7012 389.972 93.3342 388.231C94.1254 386.333 95.866 384.908 97.9231 385.067C100.297 385.541 101.404 387.757 103.145 389.181C106.31 391.713 111.057 393.295 114.696 394.719C118.494 396.143 121.975 399.15 125.457 401.207C129.096 403.422 132.735 406.112 136.691 407.695C138.59 408.486 140.489 409.277 142.23 410.701C143.97 411.967 145.553 413.233 147.61 414.182C149.509 414.974 151.408 415.607 153.148 416.714C155.047 417.822 156.629 419.088 158.687 420.037C162.326 421.936 166.282 423.518 170.08 425.417C172.137 426.683 174.036 427.633 176.409 426.841C178.783 426.209 180.682 424.468 181.948 422.411C184.796 417.664 183.53 412.6 178.625 409.91C177.042 408.961 175.776 407.536 174.194 406.587C172.137 405.321 170.08 405.321 168.023 404.372C164.225 402.631 160.902 400.732 157.737 398.359C154.414 395.827 151.249 393.295 147.452 392.029C143.496 390.605 140.331 387.598 136.375 386.174C134.793 385.7 132.735 385.225 132.419 383.326C132.261 381.269 133.685 380.319 135.584 380.478C137.483 380.794 138.907 381.744 140.964 381.427C143.179 381.111 144.603 380.319 146.819 380.478C151.724 380.794 156.471 380.478 161.377 379.37C163.908 378.737 166.44 377.471 168.656 376.047C170.554 374.623 172.137 372.566 173.877 370.825C177.675 367.502 180.523 363.704 182.58 358.957C183.846 356.267 183.688 353.894 183.53 350.887C183.53 347.881 184.005 344.874 183.055 342.026ZM154.889 362.755C152.041 363.23 149.034 362.913 146.027 362.913C143.021 362.913 140.173 363.863 137.008 363.546C131.786 363.072 126.564 362.439 121.342 362.122C118.336 361.964 115.488 362.913 112.639 362.755C109.791 362.597 107.101 362.28 104.411 362.755C101.088 363.388 97.1319 363.388 94.4418 361.014C91.7518 358.483 92.3848 354.21 92.2265 350.729C92.0683 347.564 91.5936 344.083 92.3848 340.76C93.4924 336.646 97.2901 335.38 101.246 335.38C104.094 335.38 106.626 336.488 109.633 335.855C112.165 335.222 114.538 335.063 117.228 334.747C120.235 334.589 122.766 335.222 125.773 335.38C128.621 335.538 131.311 336.646 134.16 336.171C136.85 335.855 139.223 335.538 141.913 335.855C144.762 336.013 147.135 335.538 149.825 335.222C153.148 334.905 157.421 335.222 159.952 337.912C160.902 338.861 161.535 340.285 162.326 341.393C163.434 342.975 164.7 344.399 165.333 346.14C168.339 352.786 161.535 361.647 154.889 362.755ZM226.984 343.134C227.142 339.652 228.408 337.279 231.731 335.696C234.421 334.43 237.744 334.747 240.75 334.589C243.757 334.589 247.238 334.747 250.245 335.222C251.51 335.538 252.618 336.171 253.884 336.329C255.308 336.488 256.891 336.488 258.473 336.329C261.163 336.171 263.853 336.013 266.701 335.696C269.55 335.222 273.189 334.905 276.037 335.063C277.462 335.222 278.569 335.696 279.835 336.013C281.259 336.329 283 336.329 284.424 336.171C290.279 335.696 295.975 335.538 301.83 335.538C307.527 335.538 315.913 335.38 316.705 328.101C317.654 320.347 311.957 316.075 304.678 317.182C301.83 317.657 298.982 317.499 295.975 317.499C293.285 317.499 290.595 316.233 287.905 316.55C284.899 316.708 282.842 318.448 279.835 317.499C276.987 316.708 275.088 316.233 272.24 317.182C269.391 317.974 267.018 317.341 264.17 317.024C261.163 316.708 257.998 317.341 254.833 317.182C249.295 317.182 243.757 317.024 238.218 317.341C232.364 317.815 226.192 315.758 220.338 316.866C217.015 317.657 214.166 317.341 211.476 319.714C208.786 322.088 206.729 324.461 207.204 328.259C207.52 331.107 207.679 333.956 207.837 336.646C208.153 339.652 208.628 342.659 208.786 345.507C208.786 348.197 209.261 351.678 208.628 354.368C208.311 355.476 207.52 356.584 207.362 357.85C207.204 359.432 207.362 360.856 207.679 362.28C208.47 365.445 207.679 367.819 207.362 370.825C207.204 373.832 208.628 376.205 208.628 379.054C208.786 384.75 208.786 390.605 208.786 396.302C208.786 397.884 208.786 399.466 208.311 401.049C207.837 402.315 207.52 403.264 207.362 404.688C207.362 407.536 207.52 410.701 207.995 413.549C208.311 414.974 208.628 416.24 208.628 417.822C208.786 419.404 208.628 420.987 209.103 422.569C210.21 425.892 214.008 426.841 217.173 426.841C220.021 426.841 222.869 426.209 225.876 426.209C228.724 426.209 231.098 426.209 233.788 427.158C236.794 428.266 239.326 427.158 242.174 427C245.181 426.841 248.187 425.734 251.194 426.209C254.042 426.683 256.099 427.474 259.106 427C261.954 426.367 264.644 426.683 267.493 426.683C270.499 426.841 273.506 426.209 276.512 426.367C279.36 426.525 282.367 426.683 285.215 426.841C291.07 427.158 297.083 426.683 302.938 426.525C305.786 426.367 308.951 426.525 311.641 425.892C315.28 424.943 316.546 421.936 316.863 418.297C317.021 414.815 315.755 412.125 312.907 410.068C310.375 408.011 307.843 408.011 304.995 408.961C301.988 409.91 299.931 408.961 297.083 408.486C294.077 407.853 291.386 409.119 288.538 409.277C287.114 409.277 285.69 408.802 284.108 408.644C282.683 408.486 281.101 408.644 279.677 408.328C276.67 407.853 274.139 407.695 271.132 407.853C265.119 408.011 259.106 408.802 253.093 408.961C250.245 409.119 247.713 409.119 244.864 408.328C242.174 407.536 239.168 408.011 236.32 408.011C233.313 408.169 229.515 408.169 227.775 405.163C226.192 402.315 227.142 398.675 226.351 395.669C225.718 392.504 225.085 389.497 226.984 386.491C229.041 383.168 231.889 381.902 235.845 381.744C241.541 381.585 246.922 380.636 252.46 381.744C255.15 382.377 258.789 382.218 261.479 382.06C262.904 381.902 264.011 381.427 265.277 381.111C266.701 380.636 267.967 380.794 269.391 380.636C275.088 380.478 280.785 381.111 286.323 381.111C291.861 381.269 300.723 383.326 301.83 375.572C302.305 372.408 302.147 367.977 299.773 365.445C297.083 362.755 293.76 362.755 290.279 362.597C284.582 362.28 278.886 362.122 273.347 362.28C270.341 362.439 267.809 363.704 264.644 362.913C261.638 362.122 259.581 362.439 256.732 363.072C251.194 364.496 244.706 362.913 239.01 362.439C236.161 362.28 232.522 362.913 229.99 361.331C226.667 359.432 225.718 355.16 226.034 351.678C226.351 348.83 226.984 346.14 226.984 343.134ZM439.826 316.391C435.554 316.233 431.123 317.182 426.851 317.182C424.477 317.182 422.262 316.708 419.888 316.708C417.831 316.708 415.774 317.182 413.717 317.341C411.343 317.341 408.812 318.132 406.438 317.815C404.539 317.657 402.957 316.708 401.058 316.55C398.843 316.391 396.469 317.024 394.095 317.182C392.038 317.182 389.823 317.182 387.608 317.182C383.335 317.182 378.905 317.024 374.632 317.024C372.417 317.182 370.201 317.341 367.986 317.499C365.929 317.499 363.714 318.132 361.498 318.132C359.283 318.132 357.542 316.708 355.485 316.55C353.27 316.55 351.371 317.341 349.314 317.499C346.307 317.815 343.776 318.29 341.877 320.822C340.294 322.721 340.294 325.253 340.294 327.626C340.136 329.842 340.453 332.215 339.978 334.43C339.503 336.646 338.554 338.07 338.554 340.285C338.554 342.501 338.396 344.716 338.554 346.931C338.712 349.147 339.345 351.204 339.345 353.419C339.345 355.634 339.187 357.691 339.345 359.907C339.503 362.122 339.978 364.179 339.978 366.395C340.136 370.825 339.503 375.098 339.345 379.528C339.187 382.06 338.554 384.275 338.712 386.807C338.712 388.864 339.028 390.763 339.028 392.979C339.028 397.409 338.87 401.84 339.028 406.271C339.345 410.701 340.136 414.974 340.136 419.246C340.136 421.461 340.136 424.151 342.193 425.417C344.25 426.841 347.573 426.209 349.789 426.05C355.169 425.259 358.334 420.512 357.384 415.29C357.068 413.075 356.435 410.859 356.909 408.486C357.384 406.587 357.859 405.005 358.017 402.948C358.017 400.574 358.492 398.042 358.175 395.51C358.017 393.611 357.384 391.871 357.384 389.972C357.701 385.067 362.922 379.37 368.303 380.478C370.36 380.952 371.784 382.218 373.999 381.902C376.214 381.744 378.272 381.111 380.487 380.952C384.759 380.794 389.032 380.003 393.304 380.319C395.678 380.636 397.418 381.744 399.792 381.585C401.691 381.427 403.431 380.636 405.33 380.636C407.862 380.636 410.236 381.111 412.609 380.952C414.666 380.952 416.565 380.636 418.622 380.478C422.895 380.478 429.066 381.427 431.914 377.946C433.497 376.047 434.446 373.199 433.971 370.667C433.338 368.452 431.281 366.869 429.541 365.445C425.901 362.439 420.996 362.755 416.407 362.597C414.033 362.439 411.66 361.806 409.444 362.439C407.704 363.072 406.438 363.863 404.381 363.704C402.007 363.546 400.267 362.439 397.893 362.439C395.836 362.597 393.937 362.755 391.88 362.755C387.449 362.913 383.019 363.704 378.746 363.546C374.316 363.388 370.201 362.439 365.929 362.122C363.081 361.964 360.865 360.856 359.283 358.483C357.859 356.267 358.017 354.052 357.859 351.362C357.542 346.931 356.276 342.184 359.441 338.386C361.34 336.171 364.188 336.488 366.72 336.488C368.777 336.329 370.834 335.855 372.891 335.696C377.48 335.538 382.069 335.538 386.658 335.538C388.874 335.538 391.089 335.38 393.304 335.38C395.52 335.38 397.577 336.013 399.792 336.013C402.166 336.171 404.539 336.013 406.913 335.855C408.812 335.696 410.394 334.905 412.293 334.747C414.666 334.589 416.565 335.855 418.939 336.013C420.838 336.329 422.736 336.329 424.635 336.329C427.325 336.488 429.066 335.696 431.44 335.222C433.497 334.747 435.554 335.063 437.611 335.222C440.301 335.222 443.149 335.222 445.523 333.639C447.738 332.057 448.055 329.525 448.213 326.993C448.529 322.088 445.206 316.708 439.826 316.391Z" fill="white"/>
</svg>
